<?xml version="1.0" standalone="no"?><!DOCTYPE svg PUBLIC "-//W3C//DTD SVG 1.1//EN" "http://www.w3.org/Graphics/SVG/1.1/DTD/svg11.dtd"><svg t="1746952548220" class="icon" viewBox="0 0 1024 1024" version="1.1" xmlns="http://www.w3.org/2000/svg" p-id="10492" xmlns:xlink="http://www.w3.org/1999/xlink" width="32" height="32"><path d="M704 91.712c96.448 119.04 155.136 266.944 155.136 420.288 0 151.552-57.92 301.952-151.296 419.776a57.6 57.6 0 0 1-90.24-71.552C695.424 761.856 743.872 636.16 743.872 512c0-125.248-48.768-248.192-129.472-347.712a57.6 57.6 0 0 1 89.472-72.576zM462.144 239.104A376.576 376.576 0 0 1 578.88 512a376.576 376.576 0 0 1-113.472 269.824 57.6 57.6 0 1 1-80.64-82.304A261.376 261.376 0 0 0 463.744 512a261.44 261.44 0 0 0-81.088-189.696 57.6 57.6 0 0 1 79.616-83.2zM246.4 448a80 80 0 1 1 0 160 80 80 0 0 1 0-160z" fill="#222222" p-id="10493"></path></svg>