<?xml version="1.0" encoding="UTF-8" standalone="no"?>
<!DOCTYPE svg PUBLIC "-//W3C//DTD SVG 1.1//EN" "http://www.w3.org/Graphics/SVG/1.1/DTD/svg11.dtd">
<svg width="100%" height="100%" viewBox="0 0 32 32" version="1.1" xmlns="http://www.w3.org/2000/svg" xmlns:xlink="http://www.w3.org/1999/xlink" xml:space="preserve" xmlns:serif="http://www.serif.com/" style="fill-rule:evenodd;clip-rule:evenodd;stroke-linejoin:round;stroke-miterlimit:2;">
    <path d="M14.442,7.472C16.773,9.694 18.093,12.779 18.09,16C18.093,19.173 16.814,22.215 14.544,24.432C14.208,24.762 13.755,24.946 13.284,24.946C12.296,24.946 11.484,24.134 11.484,23.146C11.484,22.662 11.679,22.198 12.024,21.86C13.604,20.321 14.495,18.206 14.492,16C14.496,13.761 13.579,11.616 11.958,10.072C11.625,9.735 11.438,9.28 11.438,8.806C11.438,7.819 12.25,7.006 13.238,7.006C13.684,7.006 14.115,7.172 14.446,7.472L14.442,7.472Z" style="fill:rgb(34,34,34);"/>
    <path d="M7.7,14C9.071,14 10.2,15.129 10.2,16.5C10.2,17.871 9.071,19 7.7,19C6.329,19 5.2,17.871 5.2,16.5C5.2,15.129 6.329,14 7.7,14Z" style="fill:rgb(34,34,34);"/>
</svg>
