<?xml version="1.0" standalone="no"?><!DOCTYPE svg PUBLIC "-//W3C//DTD SVG 1.1//EN" "http://www.w3.org/Graphics/SVG/1.1/DTD/svg11.dtd"><svg t="1741768309533" class="icon" viewBox="0 0 1024 1024" version="1.1" xmlns="http://www.w3.org/2000/svg" p-id="6378" width="200" height="200" xmlns:xlink="http://www.w3.org/1999/xlink"><path d="M937.34912 248.34048H124.04736c-0.34816 0-0.6144-0.26624-0.6144-0.6144V171.56096c0-0.32768 0.26624-0.6144 0.6144-0.6144h813.30176c0.32768 0 0.6144 0.28672 0.6144 0.6144v76.16512c0 0.34816-0.26624 0.6144-0.6144 0.6144zM608.11264 449.82272H124.04736c-0.34816 0-0.6144-0.28672-0.6144-0.6144v-76.16512c0-0.32768 0.26624-0.6144 0.6144-0.6144h484.0448c0.34816 0 0.6144 0.28672 0.6144 0.6144v76.16512c0.02048 0.34816-0.26624 0.6144-0.59392 0.6144zM608.11264 651.32544H124.04736c-0.34816 0-0.6144-0.26624-0.6144-0.6144v-76.16512c0-0.32768 0.26624-0.6144 0.6144-0.6144h484.0448c0.34816 0 0.6144 0.28672 0.6144 0.6144v76.16512c0.02048 0.32768-0.26624 0.6144-0.59392 0.6144zM937.34912 852.80768H124.04736c-0.34816 0-0.6144-0.28672-0.6144-0.6144v-76.16512c0-0.34816 0.26624-0.6144 0.6144-0.6144h813.30176c0.32768 0 0.6144 0.26624 0.6144 0.6144v76.16512c0 0.32768-0.26624 0.6144-0.6144 0.6144zM940.35968 512.49152l-250.53184-144.65024v289.28z" fill="#ffffff" p-id="6379"></path></svg>